<?xml version="1.0" encoding="UTF-8" standalone="no"?>
<!-- Created with Inkscape (http://www.inkscape.org/) -->

<svg
   width="60"
   height="60"
   viewBox="0 0 15.875 15.875"
   version="1.1"
   id="svg1"
   sodipodi:docname="favicon.svg"
   inkscape:version="1.4.2 (f4327f4, 2025-05-13)"
   xmlns:inkscape="http://www.inkscape.org/namespaces/inkscape"
   xmlns:sodipodi="http://sodipodi.sourceforge.net/DTD/sodipodi-0.dtd"
   xmlns="http://www.w3.org/2000/svg"
   xmlns:svg="http://www.w3.org/2000/svg">
  <sodipodi:namedview
     id="namedview1"
     pagecolor="#ffffff"
     bordercolor="#000000"
     borderopacity="0.25"
     inkscape:showpageshadow="2"
     inkscape:pageopacity="0.0"
     inkscape:pagecheckerboard="0"
     inkscape:deskcolor="#d1d1d1"
     inkscape:document-units="mm"
     showgrid="false"
     inkscape:zoom="4.8882427"
     inkscape:cx="16.774945"
     inkscape:cy="27.924146"
     inkscape:window-width="1280"
     inkscape:window-height="729"
     inkscape:window-x="-8"
     inkscape:window-y="-8"
     inkscape:window-maximized="1"
     inkscape:current-layer="svg1"
     showguides="true" />
  <defs
     id="defs1" />
  <rect
     style="display:inline;fill:#155dfc;fill-opacity:1;stroke:none;stroke-width:0.117631"
     id="rect1-7"
     width="15.875"
     height="15.875"
     x="36.537167"
     y="-135.72653"
     ry="2.3812499"
     transform="matrix(1,0,0,-1,-36.537167,-119.85153)"
     inkscape:label="Background" />
  <g
     id="g14"
     inkscape:label="Wordmark"
     transform="translate(-36.537167,-119.85153)">
    <path
       style="font-weight:bold;font-size:25.4px;font-family:Calibri;-inkscape-font-specification:'Calibri, Bold';fill:#ffffff;stroke-width:0.190565"
       d="m 50.861305,127.68093 q 0,0.12509 -0.01334,0.20545 -0.009,0.0804 -0.0268,0.12957 -0.01786,0.0491 -0.04912,0.0715 -0.03126,0.0223 -0.07146,0.0268 -0.169722,0.0223 -0.290312,0.13393 -0.120593,0.10726 -0.200988,0.27245 -0.07592,0.16079 -0.116128,0.36178 -0.03573,0.20098 -0.03573,0.50023 v 0.57616 q 0,0.50916 -0.05806,0.82628 -0.05359,0.32157 -0.196518,0.53595 -0.138456,0.21439 -0.370705,0.32605 -0.232254,0.11161 -0.580627,0.11161 -0.111664,0 -0.205454,-0.0136 -0.09379,-0.01 -0.20545,-0.0313 -0.03573,-0.01 -0.06699,-0.0313 -0.0268,-0.0223 -0.04913,-0.067 -0.02232,-0.0446 -0.03573,-0.1206 -0.01334,-0.0714 -0.01334,-0.18758 0,-0.1161 0.01334,-0.19207 0.01334,-0.0759 0.03573,-0.12508 0.02679,-0.0491 0.05806,-0.0715 0.03573,-0.0178 0.07146,-0.0223 h 0.169721 q 0.111664,-0.004 0.183123,-0.0446 0.07594,-0.0357 0.120592,-0.13393 0.04914,-0.0938 0.06699,-0.25906 0.02232,-0.16525 0.02232,-0.50469 v -0.55829 q 0,-0.33945 0.04912,-0.60297 0.04913,-0.2635 0.156325,-0.48683 0.107186,-0.22778 0.281377,-0.39303 0.178656,-0.16973 0.433237,-0.22779 -0.254581,-0.0581 -0.433237,-0.16079 -0.174187,-0.10276 -0.281377,-0.25457 -0.1072,-0.15186 -0.156325,-0.35285 -0.04912,-0.20098 -0.04912,-0.54489 v -0.74589 q 0,-0.33944 -0.02232,-0.50023 -0.01786,-0.16525 -0.05806,-0.2635 -0.04021,-0.0983 -0.107199,-0.13394 -0.06699,-0.0402 -0.165257,-0.0446 l -0.160787,-0.004 q -0.06699,0 -0.111664,-0.0178 -0.04466,-0.0223 -0.07146,-0.067 -0.0268,-0.0446 -0.03573,-0.12059 -0.009,-0.0804 -0.009,-0.20098 0,-0.11161 0.009,-0.1876 0.01334,-0.0804 0.03573,-0.12508 0.0268,-0.0447 0.05806,-0.067 0.03126,-0.0223 0.07146,-0.0268 0.102722,-0.0268 0.196518,-0.0357 0.09379,-0.01 0.205454,-0.01 0.352844,0 0.585093,0.11161 0.23225,0.10712 0.370705,0.32157 0.13846,0.21439 0.192053,0.53596 0.05806,0.31712 0.05806,0.83075 v 0.7682 q 0,0.27691 0.03573,0.41538 0.03573,0.13393 0.1072,0.22331 0.07592,0.0893 0.196518,0.14293 0.120592,0.0536 0.290312,0.0849 0.04021,0.004 0.07146,0.0313 0.03573,0.0223 0.0536,0.0714 0.02232,0.0491 0.03573,0.12958 0.01334,0.076 0.01334,0.19205 z"
       id="path11-8-3"
       inkscape:label="path3" />
    <path
       style="font-weight:bold;font-size:25.4px;font-family:Calibri;-inkscape-font-specification:'Calibri, Bold';fill:#ffffff;stroke-width:0.190565"
       d="m 46.687775,124.94607 q 0,0.12958 -0.01334,0.22332 -0.009,0.0893 -0.03126,0.14739 -0.02233,0.0536 -0.05806,0.0804 -0.03126,0.0268 -0.07146,0.0268 h -1.447097 v 4.6584 q 0,0.0446 -0.03126,0.0804 -0.0268,0.0358 -0.09379,0.0581 -0.06699,0.0223 -0.183121,0.0358 -0.111663,0.0136 -0.281379,0.0136 -0.169723,0 -0.285847,-0.0136 -0.111663,-0.0136 -0.178654,-0.0358 -0.06699,-0.0223 -0.09826,-0.0581 -0.0268,-0.0357 -0.0268,-0.0804 v -4.6584 h -1.447099 q -0.04466,0 -0.07593,-0.0268 -0.03126,-0.0268 -0.0536,-0.0804 -0.02233,-0.0581 -0.03573,-0.14739 -0.009,-0.0938 -0.009,-0.22332 0,-0.13393 0.009,-0.22779 0.01334,-0.0938 0.03573,-0.14738 0.02234,-0.0581 0.0536,-0.0804 0.03126,-0.0268 0.07593,-0.0268 h 4.073314 q 0.04019,0 0.07146,0.0268 0.03573,0.0223 0.05806,0.0804 0.02234,0.0536 0.03127,0.14738 0.01334,0.0938 0.01334,0.22779 z"
       id="path2" />
    <path
       style="font-weight:bold;font-size:25.4px;font-family:Calibri;-inkscape-font-specification:'Calibri, Bold';fill:#ffffff;stroke-width:0.190565"
       d="m 40.678594,131.30614 q 0,0.1161 -0.01334,0.18759 -0.009,0.076 -0.03126,0.12059 -0.02233,0.0447 -0.0536,0.067 -0.03126,0.0223 -0.06699,0.0313 -0.102721,0.0268 -0.196519,0.0357 -0.09379,0.01 -0.209918,0.01 -0.352842,0 -0.585093,-0.11161 -0.23225,-0.11161 -0.370708,-0.32605 -0.138455,-0.20993 -0.196518,-0.53149 -0.0536,-0.32158 -0.0536,-0.83075 v -0.76822 q 0,-0.28138 -0.03573,-0.44664 -0.03573,-0.16525 -0.111664,-0.29031 -0.07594,-0.12957 -0.19652,-0.21438 -0.116128,-0.0849 -0.285846,-0.11161 -0.04466,-0.01 -0.07593,-0.0313 -0.03127,-0.0268 -0.0536,-0.0714 -0.02234,-0.0491 -0.03573,-0.12958 -0.009,-0.0804 -0.009,-0.19651 0,-0.12059 0.009,-0.20099 0.009,-0.0848 0.0268,-0.13394 0.02234,-0.0491 0.04913,-0.067 0.03127,-0.0223 0.07592,-0.0313 0.312645,-0.0446 0.4779,-0.30371 0.165256,-0.25904 0.165256,-0.76375 v -0.57615 q 0,-0.50917 0.0536,-0.82627 0.05806,-0.32159 0.19652,-0.53597 0.142923,-0.21885 0.375173,-0.32604 0.232251,-0.11161 0.580626,-0.11161 0.116128,0 0.209918,0.0136 0.09379,0.01 0.192054,0.0313 0.04019,0.004 0.07146,0.0268 0.03126,0.0223 0.0536,0.067 0.02234,0.0446 0.03126,0.12508 0.01334,0.0759 0.01334,0.18759 0,0.1161 -0.01334,0.19205 -0.01334,0.0759 -0.03573,0.12508 -0.02234,0.0491 -0.05806,0.0715 -0.03573,0.0178 -0.07146,0.0178 l -0.165253,0.004 q -0.111664,0.004 -0.187587,0.0446 -0.07146,0.0357 -0.120593,0.13394 -0.04466,0.0938 -0.06699,0.25904 -0.01787,0.16078 -0.01787,0.50469 v 0.55383 q 0,0.34392 -0.04913,0.57616 -0.04913,0.23226 -0.160788,0.41984 -0.107186,0.18759 -0.281381,0.32604 -0.174187,0.13393 -0.428769,0.19206 0.254582,0.058 0.428769,0.19205 0.174188,0.13393 0.281381,0.32605 0.111664,0.18759 0.160788,0.41983 0.04913,0.23225 0.04913,0.5717 v 0.75034 q 0,0.33944 0.01787,0.50023 0.02234,0.16526 0.06253,0.25905 0.04466,0.0983 0.107186,0.13845 0.06699,0.0402 0.165254,0.0447 h 0.165255 q 0.06253,0.004 0.107199,0.0223 0.04466,0.0223 0.06699,0.067 0.0268,0.0491 0.03573,0.12509 0.009,0.0759 0.009,0.19652 z"
       id="path1-3"
       inkscape:label="path1" />
  </g>
</svg>
