<?xml version="1.0" encoding="UTF-8" standalone="no"?>
<svg
   viewBox="0 0 3000 3000"
   width="3000"
   height="3000"
   version="1.1"
   id="svg40"
   sodipodi:docname="simplistic-website-and-graphic-design-with-browser-toolbar-and-toggles.svg"
   inkscape:version="1.4.2 (f4327f4, 2025-05-13)"
   xmlns:inkscape="http://www.inkscape.org/namespaces/inkscape"
   xmlns:sodipodi="http://sodipodi.sourceforge.net/DTD/sodipodi-0.dtd"
   xmlns="http://www.w3.org/2000/svg"
   xmlns:svg="http://www.w3.org/2000/svg">
  <defs
     id="defs40" />
  <sodipodi:namedview
     id="namedview40"
     pagecolor="#ffffff"
     bordercolor="#000000"
     borderopacity="0.25"
     inkscape:showpageshadow="2"
     inkscape:pageopacity="0.0"
     inkscape:pagecheckerboard="0"
     inkscape:deskcolor="#d1d1d1"
     inkscape:zoom="0.11321195"
     inkscape:cx="0"
     inkscape:cy="1426.5278"
     inkscape:window-width="1280"
     inkscape:window-height="729"
     inkscape:window-x="-8"
     inkscape:window-y="-8"
     inkscape:window-maximized="1"
     inkscape:current-layer="svg40" />
  <g
     transform="matrix(1.7889351,0,0,1.7864924,1122.8577,657.85712)"
     id="g5">
    <svg
       width="776.20001"
       height="688.5"
       viewBox="0 0 776.2 688.5"
       version="1.1"
       id="svg4">
      <path
         d="M 718.7,681 H 57.5 c -27.6,0 -50,-22.4 -50,-50 V 57.5 c 0,-27.6 22.4,-50 50,-50 h 661.2 c 27.6,0 50,22.4 50,50 V 631 c 0,27.6 -22.4,50 -50,50 z"
         fill="#ffffff"
         id="path1" />
      <g
         fill="#f7e5c6"
         id="g4">
        <path
           d="M 718.7,688.5 H 57.5 C 25.8,688.5 0,662.8 0,631 V 57.5 C 0,25.8 25.8,0 57.5,0 h 661.2 c 31.7,0 57.5,25.8 57.5,57.5 V 631 c 0,31.8 -25.8,57.5 -57.5,57.5 z M 57.5,15 C 34.1,15 15,34.1 15,57.5 V 631 c 0,23.4 19.1,42.5 42.5,42.5 h 661.2 c 23.4,0 42.5,-19.1 42.5,-42.5 V 57.5 C 761.2,34.1 742.1,15 718.7,15 Z"
           id="path2" />
        <circle
           cx="553.59998"
           cy="74.900002"
           r="24.6"
           id="circle2" />
        <circle
           cx="624.79999"
           cy="74.900002"
           r="24.6"
           id="circle3" />
        <circle
           cx="696.09998"
           cy="74.900002"
           r="24.6"
           id="circle4" />
      </g>
    </svg>
  </g>
  <g
     transform="matrix(1.0946212,0,0,1.0957665,743.57197,917.14284)"
     id="g9">
    <svg
       width="1511.286"
       height="1024.723"
       viewBox="0 0 1511.286 1024.723"
       version="1.1"
       id="svg9">
      <path
         d="m 1499.865,91.778 v 841.167 c 0,44.38 -35.95,80.356 -80.298,80.356 H 91.833 c -44.347,0 -80.298,-35.977 -80.298,-80.356 V 91.778 c 0,-44.38 35.95,-80.356 80.298,-80.356 h 1327.734 c 44.347,0 80.298,35.977 80.298,80.356 z"
         fill="#5550bc"
         id="path5" />
      <path
         d="m 11.422,154.201 h 1488.443 v -50.677 c 0,-50.867 -41.236,-92.102 -92.102,-92.102 H 96.094 c -46.711,0 -84.589,37.847 -84.626,84.558 z"
         fill="#f7e5c6"
         id="path6" />
      <path
         d="M 1499.865,165.623 H 11.422 A 11.422,11.422 0 0 1 0,154.192 L 0.046,95.971 C 0.089,43.052 43.176,0 96.094,0 h 1311.668 c 57.084,0 103.524,46.44 103.524,103.524 v 50.677 c 0,6.308 -5.113,11.422 -11.422,11.422 z M 22.853,142.779 h 1465.59 v -39.255 c 0,-44.487 -36.193,-80.681 -80.681,-80.681 H 96.094 c -40.332,0 -73.171,32.813 -73.204,73.146 z"
         fill="#430c61"
         id="path7" />
      <ellipse
         cx="1383.077"
         cy="82.876999"
         fill="#a1d7f1"
         rx="30.816999"
         ry="30.839001"
         id="ellipse7" />
      <ellipse
         cx="1289.118"
         cy="82.876999"
         fill="#f4bf42"
         rx="30.816999"
         ry="30.839001"
         id="ellipse8" />
      <ellipse
         cx="1195.158"
         cy="82.876999"
         fill="#ff8d61"
         rx="30.816999"
         ry="30.839001"
         id="ellipse9" />
      <path
         d="M 1419.567,1024.723 H 91.833 c -50.574,0 -91.719,-41.172 -91.719,-91.778 V 91.778 C 0.114,41.172 41.259,0 91.833,0 h 1327.733 c 50.574,0 91.72,41.172 91.72,91.778 v 841.167 c 0,50.606 -41.146,91.778 -91.72,91.778 z M 91.833,22.843 c -37.979,0 -68.876,30.924 -68.876,68.935 v 841.167 c 0,38.011 30.897,68.935 68.876,68.935 h 1327.733 c 37.979,0 68.876,-30.924 68.876,-68.935 V 91.778 c 0,-38.011 -30.897,-68.935 -68.876,-68.935 z"
         fill="#430c61"
         id="path9" />
    </svg>
  </g>
  <g
     transform="matrix(1.0379405,0,0,1.0387138,934.28626,1202.1428)"
     id="g13">
    <svg
       width="1255.233"
       height="674.59802"
       viewBox="0 0 1255.233 674.598"
       version="1.1"
       id="svg12">
      <g
         fill="#fff4e2"
         id="g12">
        <path
           d="M 1243.811,674.597 H 695.725 c -6.308,0 -11.422,-5.113 -11.422,-11.422 V 11.422 C 684.303,5.114 689.416,0 695.724,0 h 548.086 c 6.308,0 11.422,5.113 11.422,11.422 v 651.753 c 0,6.309 -5.114,11.422 -11.422,11.422 z M 707.146,651.753 h 525.243 V 22.844 H 707.146 Z"
           id="path10" />
        <path
           d="m 1243.817,674.597 a 11.4,11.4 0 0 1 -8.748,-4.07 L 686.983,18.774 c -4.06,-4.828 -3.438,-12.033 1.391,-16.093 4.827,-4.061 12.032,-3.438 16.093,1.39 l 548.086,651.753 c 4.06,4.828 3.438,12.033 -1.39,16.094 a 11.377,11.377 0 0 1 -7.346,2.68 z"
           id="path11" />
        <path
           d="m 695.719,674.597 c -2.595,0 -5.204,-0.879 -7.345,-2.68 -4.828,-4.061 -5.451,-11.266 -1.391,-16.094 L 1235.069,4.071 c 4.06,-4.826 11.264,-5.451 16.093,-1.39 4.828,4.06 5.45,11.265 1.39,16.093 L 704.466,670.527 a 11.4,11.4 0 0 1 -8.748,4.07 z M 560.368,22.844 H 11.422 C 5.114,22.844 0,17.73 0,11.422 0,5.114 5.114,0 11.422,0 h 548.946 c 6.308,0 11.422,5.114 11.422,11.422 0,6.308 -5.114,11.422 -11.422,11.422 z M 428.584,159.206 H 11.422 C 5.114,159.206 0,154.092 0,147.784 0,141.476 5.114,136.362 11.422,136.362 h 417.163 c 6.308,0 11.422,5.113 11.422,11.422 0,6.309 -5.114,11.422 -11.422,11.422 z M 560.368,294.39 H 349.522 c -6.308,0 -11.422,-5.113 -11.422,-11.422 0,-6.309 5.114,-11.422 11.422,-11.422 h 210.846 c 6.308,0 11.422,5.113 11.422,11.422 0,6.309 -5.114,11.422 -11.422,11.422 z M 3.789,651.668 263.422,526.383 3.79,401.099 A 11.367,11.367 0 0 1 0,398.138 V 654.63 a 11.374,11.374 0 0 1 3.789,-2.961 z M 565.263,380.732 H 14.146 L 289.705,513.701 Z M 575.62,401.099 315.987,526.384 575.62,651.669 a 11.367,11.367 0 0 1 3.79,2.961 V 398.138 a 11.367,11.367 0 0 1 -3.79,2.961 z M 289.705,539.066 14.146,672.035 h 551.117 z"
           id="path12" />
      </g>
    </svg>
  </g>
  <g
     transform="matrix(1.0920863,0,0,1.0915354,2164.2863,1705.7143)"
     id="g21">
    <svg
       width="594.53699"
       height="445.63699"
       viewBox="0 0 594.537 445.637"
       version="1.1"
       id="svg20">
      <path
         d="m 60.731,11.422 h 477.954 c 23.445,0 44.429,20.984 44.429,46.869 v 329.055 c 0,25.885 -20.984,46.869 -46.869,46.869 H 58.291 c -25.885,0 -46.869,-20.984 -46.869,-46.869 V 58.291 c 0,-25.885 20.984,-46.869 49.309,-46.869 z"
         fill="#fff4e2"
         id="path13" />
      <path
         d="M 536.245,445.637 H 58.291 C 26.15,445.637 0,419.488 0,387.346 V 58.292 C 0,25.604 26.676,0 60.731,0 h 477.954 c 30.274,0 55.851,26.694 55.851,58.292 v 329.055 c 0,32.142 -26.149,58.291 -58.291,58.291 z M 60.731,22.843 c -21.599,0 -37.887,15.239 -37.887,35.448 v 329.055 c 0,19.546 15.902,35.447 35.447,35.447 h 477.954 c 19.545,0 35.447,-15.901 35.447,-35.447 V 58.292 c 0,-18.884 -15.424,-35.448 -33.007,-35.448 H 60.731 Z"
         fill="#430c61"
         id="path14" />
      <path
         d="m 385.307,347.993 h -11.172 c -50.617,0 -91.796,-41.18 -91.796,-91.796 v -62.819 c 0,-38.021 -30.932,-68.952 -68.952,-68.952 -38.02,0 -68.953,30.932 -68.953,68.952 v 106.643 c 0,6.308 -5.114,11.422 -11.422,11.422 -6.308,0 -11.422,-5.114 -11.422,-11.422 V 193.378 c 0,-50.616 41.18,-91.796 91.796,-91.796 50.616,0 91.796,41.18 91.796,91.796 v 62.819 c 0,38.021 30.932,68.952 68.953,68.952 h 11.172 c 38.021,0 68.953,-30.932 68.953,-68.952 V 71.258 c 0,-6.309 5.114,-11.422 11.422,-11.422 6.308,0 11.422,5.113 11.422,11.422 v 184.938 c 0,50.616 -41.18,91.796 -91.796,91.796 z"
         fill="#430c61"
         id="path15" />
      <path
         d="m 358.775,314.013 h 42.824 v 42.824 h -42.824 z"
         fill="#95ff80"
         id="path16" />
      <path
         d="m 401.598,368.258 h -42.824 c -6.308,0 -11.422,-5.113 -11.422,-11.422 v -42.824 c 0,-6.309 5.114,-11.422 11.422,-11.422 h 42.824 c 6.308,0 11.422,5.113 11.422,11.422 v 42.824 c 0,6.309 -5.114,11.422 -11.422,11.422 z m -31.402,-22.843 h 19.98 v -19.98 h -19.98 z"
         fill="#a1d7f1"
         id="path17" />
      <rect
         fill="#dea2ff"
         height="21.378"
         rx="10.689"
         width="21.378"
         x="233.853"
         y="324.73499"
         id="rect17" />
      <path
         d="m 244.543,357.536 c -12.192,0 -22.111,-9.919 -22.111,-22.111 0,-12.192 9.919,-22.111 22.111,-22.111 12.192,0 22.111,9.919 22.111,22.111 0,12.192 -9.919,22.111 -22.111,22.111 z m 0,-22.844 a 0.733,0.733 0 1 0 0,1.466 0.733,0.733 0 0 0 0,-1.466 z"
         fill="#a1d7f1"
         id="path18" />
      <rect
         fill="#dea2ff"
         height="21.378"
         rx="10.689"
         width="21.378"
         x="505.14099"
         y="324.73499"
         id="rect18" />
      <g
         fill="#a1d7f1"
         id="g20">
        <path
           d="m 515.83,357.536 c -12.192,0 -22.111,-9.919 -22.111,-22.111 0,-12.192 9.919,-22.111 22.111,-22.111 12.192,0 22.111,9.919 22.111,22.111 0,12.192 -9.919,22.111 -22.111,22.111 z m 0,-22.844 a 0.7325,0.7325 0 1 0 0,1.465 0.7325,0.7325 0 0 0 0,-1.465 z"
           id="path19" />
        <path
           d="M 505.141,346.846 H 254.226 c -6.308,0 -11.422,-5.113 -11.422,-11.422 0,-6.309 5.114,-11.422 11.422,-11.422 h 250.915 c 6.308,0 11.422,5.113 11.422,11.422 0,6.309 -5.114,11.422 -11.422,11.422 z"
           id="path20" />
      </g>
    </svg>
  </g>
  <g
     transform="matrix(1.0990356,0,0,1.1086655,1358.572,2108.5715)"
     id="g28">
    <svg
       width="857.89502"
       height="210.67799"
       viewBox="0 0 857.895 210.678"
       version="1.1"
       id="svg28">
      <rect
         fill="#f4bf42"
         height="187.834"
         rx="93.917"
         width="755.66302"
         x="90.809998"
         y="11.422"
         id="rect21" />
      <path
         d="M 752.556,210.678 H 184.727 C 126.643,210.678 79.388,163.423 79.388,105.339 79.388,47.255 126.643,0 184.727,0 h 567.829 c 58.084,0 105.339,47.255 105.339,105.339 0,58.084 -47.255,105.339 -105.339,105.339 z M 184.727,22.844 c -45.488,0 -82.495,37.007 -82.495,82.495 0,45.488 37.007,82.495 82.495,82.495 h 567.829 c 45.488,0 82.495,-37.007 82.495,-82.495 0,-45.488 -37.007,-82.495 -82.495,-82.495 z"
         fill="#430c61"
         id="path21" />
      <g
         fill="#ffffff"
         id="g24">
        <path
           d="m 297.713,118.823 -22.372,30.359 V 64.496 l 59.924,59.92 z"
           id="path22" />
        <path
           d="M 275.34,160.606 A 11.421,11.421 0 0 1 263.92,149.183 V 64.496 a 11.424,11.424 0 0 1 19.498,-8.077 l 59.924,59.92 a 11.424,11.424 0 0 1 2.125,13.216 11.402,11.402 0 0 1 -11.883,6.158 l -30.752,-4.58 -18.294,24.825 a 11.419,11.419 0 0 1 -9.196,4.647 z m 11.423,-68.537 v 22.36 l 1.755,-2.382 a 11.414,11.414 0 0 1 10.877,-4.521 l 3.319,0.494 -15.952,-15.951 z m 453.666,66.17 c -29.338,0 -53.207,-23.868 -53.207,-53.207 0,-29.339 23.869,-53.207 53.207,-53.207 29.338,0 53.207,23.868 53.207,53.207 0,29.339 -23.869,53.207 -53.207,53.207 z m 0,-83.57 c -16.742,0 -30.363,13.621 -30.363,30.363 0,16.742 13.621,30.363 30.363,30.363 16.742,0 30.363,-13.621 30.363,-30.363 0,-16.742 -13.621,-30.363 -30.363,-30.363 z m -120.471,77.643 h -67.885 c -6.308,0 -11.422,-5.113 -11.422,-11.422 V 84.54 h -4.387 c -6.308,0 -11.422,-5.113 -11.422,-11.422 0,-6.309 5.114,-11.422 11.422,-11.422 h 4.387 V 57.66 c 0,-6.309 5.114,-11.422 11.422,-11.422 6.308,0 11.422,5.113 11.422,11.422 v 4.036 h 56.463 c 6.308,0 11.422,5.113 11.422,11.422 v 67.771 c 0,6.309 -5.114,11.422 -11.422,11.422 z m -56.464,-22.844 h 45.042 V 84.54 h -45.042 z m -132.99,27.359 c -6.308,0 -11.422,-5.113 -11.422,-11.422 V 62.69 c 0,-6.309 5.114,-11.422 11.422,-11.422 6.308,0 11.422,5.113 11.422,11.422 v 82.716 c 0,6.309 -5.114,11.422 -11.422,11.422 z"
           id="path23" />
        <path
           d="m 464.4,87.189 c -6.308,0 -11.422,-5.113 -11.422,-11.422 v -1.655 h -46.273 v 1.655 c 0,6.309 -5.114,11.422 -11.422,11.422 -6.308,0 -11.422,-5.113 -11.422,-11.422 V 62.69 c 0,-6.309 5.114,-11.422 11.422,-11.422 H 464.4 c 6.308,0 11.422,5.113 11.422,11.422 v 13.077 c 0,6.309 -5.114,11.422 -11.422,11.422 z m -19.712,71.608 h -29.164 c -6.308,0 -11.422,-5.113 -11.422,-11.422 0,-6.309 5.114,-11.422 11.422,-11.422 h 29.164 c 6.308,0 11.422,5.113 11.422,11.422 0,6.309 -5.114,11.422 -11.422,11.422 z"
           id="path24" />
      </g>
      <path
         d="M 203.868,11.422 V 199.256 H 103.96 c -51.107,0 -92.538,-41.431 -92.538,-92.538 0,-52.631 42.665,-95.296 95.296,-95.296 z"
         fill="#a1d7f1"
         id="path25" />
      <path
         d="M 203.868,210.678 H 103.96 C 46.636,210.678 0,164.041 0,106.718 0,47.873 47.873,0 106.717,0 h 97.15 c 6.308,0 11.422,5.113 11.422,11.422 v 187.834 c 0,6.309 -5.114,11.422 -11.422,11.422 z M 106.717,22.844 c -46.248,0 -83.874,37.626 -83.874,83.874 0,44.728 36.388,81.116 81.116,81.116 h 88.486 V 22.844 h -85.729 z"
         fill="#430c61"
         id="path26" />
      <path
         d="m 148.066,156.875 a 11.386,11.386 0 0 1 -8.077,-3.346 L 59.147,72.688 c -4.46,-4.46 -4.46,-11.692 0,-16.152 4.461,-4.461 11.692,-4.461 16.153,0 l 80.843,80.842 c 4.46,4.46 4.46,11.692 0,16.152 a 11.387,11.387 0 0 1 -8.077,3.346 z"
         fill="#430c61"
         id="path27" />
      <path
         d="m 67.223,156.875 a 11.386,11.386 0 0 1 -8.077,-3.346 c -4.46,-4.46 -4.46,-11.692 0,-16.152 l 80.843,-80.842 c 4.461,-4.462 11.693,-4.46 16.153,0 4.46,4.46 4.46,11.692 0,16.152 l -80.843,80.842 a 11.389,11.389 0 0 1 -8.077,3.346 z"
         fill="#430c61"
         id="path28" />
    </svg>
  </g>
  <g
     transform="matrix(1.0943476,0,0,1.0967462,475.71483,1836.4286)"
     id="g34">
    <svg
       width="327.005"
       height="324.336"
       viewBox="0 0 327.005 324.336"
       version="1.1"
       id="svg33">
      <path
         d="m 47.899,11.422 h 231.206 c 20.146,0 36.477,16.367 36.477,36.557 v 228.378 c 0,20.19 -16.331,36.557 -36.477,36.557 H 47.899 c -20.146,0 -36.477,-16.367 -36.477,-36.557 V 47.979 c 0,-20.19 16.331,-36.557 36.477,-36.557 z"
         fill="#ff8d61"
         id="path29" />
      <path
         d="M 279.105,324.336 H 47.899 C 21.487,324.336 0,302.812 0,276.357 V 47.979 C 0,21.523 21.487,0 47.899,0 h 231.206 c 26.412,0 47.9,21.523 47.9,47.979 v 228.378 c 0,26.455 -21.488,47.979 -47.899,47.979 z M 47.899,22.843 c -13.815,0 -25.055,11.275 -25.055,25.136 v 228.378 c 0,13.859 11.24,25.135 25.055,25.135 h 231.206 c 13.816,0 25.056,-11.275 25.056,-25.135 V 47.979 c 0,-13.86 -11.24,-25.136 -25.056,-25.136 z"
         fill="#430c61"
         id="path30" />
      <path
         d="M 221.426,117.081 138.555,69.132 c -11.745,-6.796 -26.426,1.698 -26.426,15.29 v 95.9 c 0,13.591 14.681,22.086 26.426,15.29 l 82.871,-47.949 c 11.745,-6.796 11.745,-23.785 0,-30.581 z"
         fill="#ffffff"
         id="path31" />
      <g
         fill="#fff4e2"
         id="g33">
        <path
           d="M 271.353,261.89 H 54.58 c -6.308,0 -11.422,-5.113 -11.422,-11.422 0,-6.309 5.114,-11.422 11.422,-11.422 h 216.773 c 6.308,0 11.422,5.113 11.422,11.422 0,6.309 -5.114,11.422 -11.422,11.422 z"
           id="path32" />
        <path
           d="m 221.121,277.113 c -6.308,0 -11.422,-5.113 -11.422,-11.422 v -30.658 c 0,-6.309 5.114,-11.422 11.422,-11.422 6.308,0 11.422,5.113 11.422,11.422 v 30.658 c 0,6.309 -5.114,11.422 -11.422,11.422 z"
           id="path33" />
      </g>
    </svg>
  </g>
  <g
     transform="matrix(1.4120562,0,0,1.412279,186.42912,1305)"
     id="g38">
    <svg
       width="346"
       height="244.286"
       viewBox="0 0 346 244.286"
       version="1.1"
       id="svg37">
      <rect
         fill="#fff4e2"
         height="229.286"
         rx="40"
         width="331"
         x="7.5"
         y="7.5"
         id="rect34" />
      <circle
         cx="280.10101"
         cy="65.899002"
         fill="#f4bf42"
         r="21.957001"
         id="circle34" />
      <path
         d="m 280.101,95.356 c -16.242,0 -29.457,-13.214 -29.457,-29.457 0,-16.243 13.215,-29.457 29.457,-29.457 16.242,0 29.456,13.214 29.456,29.457 0,16.243 -13.214,29.457 -29.456,29.457 z m 0,-43.913 c -7.972,0 -14.457,6.485 -14.457,14.457 0,7.972 6.485,14.457 14.457,14.457 7.972,0 14.456,-6.485 14.456,-14.457 0,-7.972 -6.485,-14.457 -14.456,-14.457 z"
         fill="#430c61"
         id="path34" />
      <path
         d="m 7.5,179.525 47.433,-54.087 c 3.705,-4.225 10.282,-4.225 13.988,0 l 40.521,46.206 c 4.161,4.745 11.74,4.057 14.978,-1.361 l 54.502,-91.181 c 3.61,-6.039 12.359,-6.039 15.969,0 l 62.015,103.751 c 3.007,5.031 9.861,6.061 14.214,2.136 l 23.258,-20.97 a 9.303,9.303 0 0 1 12.458,0 l 31.664,28.549 v 4.218 c 0,22.091 -17.909,40 -40,40 h -251 c -22.091,0 -40,-17.909 -40,-40 v -17.262 z"
         fill="#f4bf42"
         id="path35" />
      <g
         fill="#430c61"
         id="g37">
        <path
           d="M 298.5,244.286 H 47.5 C 21.308,244.286 0,222.978 0,196.786 v -17.262 c 0,-1.82 0.661,-3.577 1.861,-4.945 l 47.434,-54.087 a 16.803,16.803 0 0 1 25.265,0 l 40.521,46.206 c 0.5,0.57 1.104,0.645 1.519,0.606 a 1.74,1.74 0 0 0 1.384,-0.87 l 54.502,-91.181 c 3.062,-5.123 8.453,-8.182 14.422,-8.182 5.969,0 11.36,3.059 14.422,8.182 l 62.016,103.75 c 0.361,0.604 0.895,0.8 1.279,0.858 0.385,0.059 0.952,0.028 1.476,-0.444 l 23.257,-20.97 a 16.763,16.763 0 0 1 22.503,0 l 31.664,28.549 a 7.502,7.502 0 0 1 2.478,5.57 v 4.218 c 0,26.191 -21.309,47.5 -47.5,47.5 z M 15,182.347 v 14.439 c 0,17.92 14.579,32.5 32.5,32.5 h 251 c 17.921,0 32.5,-14.58 32.5,-32.5 v -0.882 l -29.187,-26.315 a 1.799,1.799 0 0 0 -2.414,0 l -23.257,20.97 a 16.748,16.748 0 0 1 -13.75,4.137 16.744,16.744 0 0 1 -11.924,-7.996 L 188.452,82.95 c -0.434,-0.726 -1.08,-0.878 -1.547,-0.878 -0.467,0 -1.113,0.152 -1.547,0.877 l -54.502,91.181 a 16.852,16.852 0 0 1 -12.901,8.112 16.845,16.845 0 0 1 -14.153,-5.654 L 63.281,130.381 c -0.445,-0.507 -0.982,-0.614 -1.355,-0.614 -0.373,0 -0.909,0.106 -1.354,0.614 L 15,182.346 Z"
           id="path36" />
        <path
           d="M 298.5,244.286 H 47.5 C 21.308,244.286 0,222.978 0,196.786 V 47.5 C 0,21.309 21.308,0 47.5,0 h 251 C 324.691,0 346,21.309 346,47.5 v 149.286 c 0,26.191 -21.309,47.5 -47.5,47.5 z M 47.5,15 C 29.579,15 15,29.58 15,47.5 v 149.286 c 0,17.92 14.579,32.5 32.5,32.5 h 251 c 17.921,0 32.5,-14.58 32.5,-32.5 V 47.5 C 331,29.58 316.421,15 298.5,15 Z"
           id="path37" />
      </g>
    </svg>
  </g>
  <g
     transform="matrix(1.1395666,0,0,1.1524688,415.71483,940.71426)"
     id="g39">
    <svg
       width="240.69299"
       height="128.29601"
       viewBox="0 0 240.693 128.296"
       version="1.1"
       id="svg38">
      <rect
         fill="#a1d7f1"
         height="105.452"
         rx="52.726002"
         transform="rotate(180,120.3465,64.148)"
         width="217.849"
         x="11.422"
         y="11.422"
         id="rect38" />
      <path
         d="M 176.545,128.296 H 64.148 C 28.777,128.296 0,99.519 0,64.148 0,28.777 28.777,0 64.148,0 h 112.397 c 35.371,0 64.148,28.777 64.148,64.148 0,35.371 -28.777,64.148 -64.148,64.148 z M 64.148,22.844 c -22.775,0 -41.304,18.528 -41.304,41.304 0,22.776 18.529,41.305 41.304,41.305 h 112.397 c 22.775,0 41.304,-18.529 41.304,-41.305 0,-22.776 -18.529,-41.304 -41.304,-41.304 z"
         fill="#430c61"
         id="path38" />
      <circle
         cx="65.374001"
         cy="64.148003"
         fill="#ffffff"
         r="27.573999"
         id="circle38" />
    </svg>
  </g>
  <g
     transform="matrix(-1.1395666,0,0,1.1524688,842.1434,745.71426)"
     id="g40">
    <svg
       width="240.69299"
       height="128.29601"
       viewBox="0 0 240.693 128.296"
       version="1.1"
       id="svg39">
      <rect
         fill="#ff8d61"
         height="105.452"
         rx="52.726002"
         transform="rotate(180,120.3465,64.148)"
         width="217.849"
         x="11.422"
         y="11.422"
         id="rect39" />
      <path
         d="M 176.545,128.296 H 64.148 C 28.777,128.296 0,99.519 0,64.148 0,28.777 28.777,0 64.148,0 h 112.397 c 35.371,0 64.148,28.777 64.148,64.148 0,35.371 -28.777,64.148 -64.148,64.148 z M 64.148,22.844 c -22.775,0 -41.304,18.528 -41.304,41.304 0,22.776 18.529,41.305 41.304,41.305 h 112.397 c 22.775,0 41.304,-18.529 41.304,-41.305 0,-22.776 -18.529,-41.304 -41.304,-41.304 z"
         fill="#430c61"
         id="path39" />
      <circle
         cx="65.374001"
         cy="64.148003"
         fill="#ffffff"
         r="27.573999"
         id="circle39" />
    </svg>
  </g>
</svg>
