<?xml version="1.0" encoding="UTF-8" standalone="no"?>
<!-- Created with Inkscape (http://www.inkscape.org/) -->

<svg
   width="150"
   height="60"
   viewBox="0 0 39.687501 15.875"
   version="1.1"
   id="svg1"
   inkscape:version="1.4.2 (f4327f4, 2025-05-13)"
   sodipodi:docname="Templify.svg"
   xmlns:inkscape="http://www.inkscape.org/namespaces/inkscape"
   xmlns:sodipodi="http://sodipodi.sourceforge.net/DTD/sodipodi-0.dtd"
   xmlns="http://www.w3.org/2000/svg"
   xmlns:svg="http://www.w3.org/2000/svg">
  <sodipodi:namedview
     id="namedview1"
     pagecolor="#ffffff"
     bordercolor="#000000"
     borderopacity="0.25"
     inkscape:showpageshadow="2"
     inkscape:pageopacity="0.0"
     inkscape:pagecheckerboard="0"
     inkscape:deskcolor="#d1d1d1"
     inkscape:document-units="mm"
     showgrid="false"
     inkscape:zoom="4.8882427"
     inkscape:cx="74.362102"
     inkscape:cy="33.856748"
     inkscape:window-width="1280"
     inkscape:window-height="729"
     inkscape:window-x="-8"
     inkscape:window-y="-8"
     inkscape:window-maximized="1"
     inkscape:current-layer="svg1" />
  <defs
     id="defs1" />
  <rect
     style="fill:#155dfc;fill-opacity:1;stroke:none;stroke-width:0.185991"
     id="rect1-7"
     width="39.6875"
     height="15.875"
     x="24.630917"
     y="-135.72653"
     ry="2.3812499"
     transform="matrix(1,0,0,-1,-24.630917,-119.85153)"
     inkscape:label="Background" />
  <g
     id="g12"
     inkscape:label="Wordmark"
     transform="matrix(0.26458333,0,0,0.26458333,-6.5169301,-31.710717)">
    <path
       style="font-weight:bold;font-size:25.4px;font-family:Calibri;-inkscape-font-specification:'Calibri, Bold';fill:#ffffff;stroke-width:0.529167"
       d="m 167.44073,149.39885 q 0,0.34726 -0.0372,0.5705 -0.0248,0.22325 -0.0744,0.35967 -0.0496,0.13643 -0.13643,0.19844 -0.0868,0.062 -0.19843,0.0744 -0.47129,0.062 -0.80616,0.37207 -0.33486,0.29766 -0.5581,0.75655 -0.21084,0.44648 -0.32246,1.00459 -0.0992,0.5581 -0.0992,1.38906 v 1.5999 q 0,1.41387 -0.16123,2.29444 -0.14883,0.89296 -0.54571,1.48828 -0.38447,0.59531 -1.02939,0.90537 -0.64492,0.31006 -1.6123,0.31006 -0.31006,0 -0.57051,-0.0372 -0.26045,-0.0248 -0.57051,-0.0868 -0.0992,-0.0248 -0.18604,-0.0868 -0.0744,-0.062 -0.13642,-0.18604 -0.062,-0.12402 -0.0992,-0.33486 -0.0372,-0.19844 -0.0372,-0.5209 0,-0.32246 0.0372,-0.5333 0.0372,-0.21084 0.0992,-0.34727 0.0744,-0.13642 0.16123,-0.19843 0.0992,-0.0496 0.19844,-0.062 h 0.47129 q 0.31005,-0.0124 0.50849,-0.12402 0.21084,-0.0992 0.33487,-0.37207 0.13642,-0.26045 0.18603,-0.71934 0.062,-0.45888 0.062,-1.40146 v -1.55029 q 0,-0.94258 0.13643,-1.67432 0.13642,-0.73174 0.43408,-1.35186 0.29766,-0.63251 0.78135,-1.0914 0.49609,-0.47129 1.20303,-0.63252 -0.70694,-0.16123 -1.20303,-0.44649 -0.48369,-0.28525 -0.78135,-0.70693 -0.29766,-0.42168 -0.43408,-0.97978 -0.13643,-0.55811 -0.13643,-1.51309 v -2.07119 q 0,-0.94258 -0.062,-1.38906 -0.0496,-0.45889 -0.16123,-0.73174 -0.11162,-0.27285 -0.29766,-0.37207 -0.18603,-0.11162 -0.45888,-0.12403 l -0.44649,-0.0124 q -0.18603,0 -0.31006,-0.0496 -0.12402,-0.062 -0.19843,-0.18603 -0.0744,-0.12403 -0.0992,-0.33487 -0.0248,-0.22324 -0.0248,-0.5581 0,-0.31006 0.0248,-0.5209 0.0372,-0.22324 0.0992,-0.34727 0.0744,-0.12402 0.16123,-0.18603 0.0868,-0.062 0.19843,-0.0744 0.28526,-0.0744 0.54571,-0.0992 0.26045,-0.0248 0.57051,-0.0248 0.97978,0 1.6247,0.31006 0.64492,0.29766 1.0294,0.89297 0.38447,0.59531 0.5333,1.48828 0.16123,0.88057 0.16123,2.30684 v 2.1332 q 0,0.76894 0.0992,1.15342 0.0992,0.37207 0.29765,0.62011 0.21084,0.24805 0.54571,0.39688 0.33486,0.14883 0.80615,0.23564 0.11162,0.0124 0.19844,0.0868 0.0992,0.062 0.14882,0.19844 0.062,0.13642 0.0992,0.35967 0.0372,0.21084 0.0372,0.5333 z"
       id="path12" />
    <path
       style="font-weight:bold;font-size:25.4px;font-family:Calibri;-inkscape-font-specification:'Calibri, Bold';fill:#ffffff;stroke-width:0.529167"
       d="m 158.70948,149.39885 q 0,0.34726 -0.0372,0.5705 -0.0248,0.22325 -0.0744,0.35967 -0.0496,0.13643 -0.13642,0.19844 -0.0868,0.062 -0.19844,0.0744 -0.47129,0.062 -0.80615,0.37207 -0.33486,0.29766 -0.55811,0.75655 -0.21084,0.44648 -0.32246,1.00459 -0.0992,0.5581 -0.0992,1.38906 v 1.5999 q 0,1.41387 -0.16123,2.29444 -0.14882,0.89296 -0.5457,1.48828 -0.38447,0.59531 -1.02939,0.90537 -0.64493,0.31006 -1.61231,0.31006 -0.31006,0 -0.57051,-0.0372 -0.26045,-0.0248 -0.5705,-0.0868 -0.0992,-0.0248 -0.18604,-0.0868 -0.0744,-0.062 -0.13643,-0.18604 -0.062,-0.12402 -0.0992,-0.33486 -0.0372,-0.19844 -0.0372,-0.5209 0,-0.32246 0.0372,-0.5333 0.0372,-0.21084 0.0992,-0.34727 0.0744,-0.13642 0.16123,-0.19843 0.0992,-0.0496 0.19844,-0.062 h 0.47129 q 0.31006,-0.0124 0.5085,-0.12402 0.21084,-0.0992 0.33486,-0.37207 0.13643,-0.26045 0.18604,-0.71934 0.062,-0.45888 0.062,-1.40146 v -1.55029 q 0,-0.94258 0.13642,-1.67432 0.13643,-0.73174 0.43409,-1.35186 0.29765,-0.63251 0.78134,-1.0914 0.4961,-0.47129 1.20303,-0.63252 -0.70693,-0.16123 -1.20303,-0.44649 -0.48369,-0.28525 -0.78134,-0.70693 -0.29766,-0.42168 -0.43409,-0.97978 -0.13642,-0.55811 -0.13642,-1.51309 v -2.07119 q 0,-0.94258 -0.062,-1.38906 -0.0496,-0.45889 -0.16123,-0.73174 -0.11163,-0.27285 -0.29766,-0.37207 -0.18604,-0.11162 -0.45889,-0.12403 l -0.44648,-0.0124 q -0.18604,0 -0.31006,-0.0496 -0.12402,-0.062 -0.19844,-0.18603 -0.0744,-0.12403 -0.0992,-0.33487 -0.0248,-0.22324 -0.0248,-0.5581 0,-0.31006 0.0248,-0.5209 0.0372,-0.22324 0.0992,-0.34727 0.0744,-0.12402 0.16123,-0.18603 0.0868,-0.062 0.19844,-0.0744 0.28525,-0.0744 0.5457,-0.0992 0.26045,-0.0248 0.57051,-0.0248 0.97979,0 1.62471,0.31006 0.64492,0.29766 1.02939,0.89297 0.38448,0.59531 0.5333,1.48828 0.16123,0.88057 0.16123,2.30684 v 2.1332 q 0,0.76894 0.0992,1.15342 0.0992,0.37207 0.29766,0.62011 0.21084,0.24805 0.5457,0.39688 0.33487,0.14883 0.80615,0.23564 0.11163,0.0124 0.19844,0.0868 0.0992,0.062 0.14883,0.19844 0.062,0.13642 0.0992,0.35967 0.0372,0.21084 0.0372,0.5333 z"
       id="path11" />
    <path
       style="font-weight:bold;font-size:25.4px;font-family:Calibri;-inkscape-font-specification:'Calibri, Bold';fill:#ffffff;stroke-width:0.529167"
       d="m 140.42843,156.51779 -1.33946,3.91914 q -0.11162,0.31006 -0.60771,0.44649 -0.49609,0.13642 -1.45108,0.13642 -0.49609,0 -0.79375,-0.0496 -0.29765,-0.0372 -0.44648,-0.13642 -0.14883,-0.0992 -0.16123,-0.24805 -0.0124,-0.14883 0.0744,-0.35967 l 1.47588,-3.7083 q -0.16123,-0.0744 -0.29765,-0.22324 -0.12403,-0.16123 -0.18604,-0.33486 l -3.80752,-10.16993 q -0.16123,-0.43408 -0.16123,-0.65732 0,-0.23564 0.14883,-0.35967 0.14883,-0.13642 0.49609,-0.18603 0.35967,-0.0496 0.94258,-0.0496 0.5333,0 0.84336,0.0248 0.31006,0.0124 0.48369,0.0868 0.17364,0.0744 0.26045,0.23564 0.0868,0.14883 0.17363,0.43409 l 2.6045,7.40419 h 0.0372 l 2.38125,-7.55302 q 0.0744,-0.32246 0.18604,-0.42168 0.12402,-0.11162 0.39687,-0.16123 0.27286,-0.0496 0.95498,-0.0496 0.5333,0 0.88057,0.0496 0.35967,0.0496 0.5209,0.18603 0.17363,0.13643 0.17363,0.37207 0,0.22324 -0.0992,0.5333 z"
       id="path10" />
    <path
       style="font-weight:bold;font-size:25.4px;font-family:Calibri;-inkscape-font-specification:'Calibri, Bold';fill:#ffffff;stroke-width:0.529167"
       d="m 132.52813,140.81642 q 0,0.35967 -0.0248,0.58291 -0.0248,0.21084 -0.0744,0.33487 -0.0496,0.11162 -0.11162,0.16123 -0.062,0.0372 -0.13642,0.0372 -0.0868,0 -0.19844,-0.0372 -0.0992,-0.0496 -0.26045,-0.0992 -0.14883,-0.0496 -0.35967,-0.0868 -0.21084,-0.0496 -0.49609,-0.0496 -0.33486,0 -0.58291,0.11163 -0.23565,0.0992 -0.39688,0.33486 -0.16123,0.22324 -0.23564,0.59531 -0.0744,0.35967 -0.0744,0.89297 v 1.01699 h 2.02159 q 0.11162,0 0.19843,0.062 0.0992,0.062 0.16123,0.21084 0.062,0.13643 0.0868,0.38448 0.0372,0.24804 0.0372,0.60771 0,0.68213 -0.12403,0.97979 -0.12402,0.28525 -0.35966,0.28525 h -2.02159 v 8.95449 q 0,0.12403 -0.0744,0.22324 -0.0744,0.0868 -0.24805,0.14883 -0.17363,0.062 -0.48369,0.0868 -0.31006,0.0372 -0.75654,0.0372 -0.44648,0 -0.75654,-0.0372 -0.29766,-0.0248 -0.48369,-0.0868 -0.17364,-0.062 -0.24805,-0.14883 -0.062,-0.0992 -0.062,-0.22324 v -8.95449 h -1.38907 q -0.23564,0 -0.35966,-0.28525 -0.11163,-0.29766 -0.11163,-0.97979 0,-0.35967 0.0248,-0.60771 0.0372,-0.24805 0.0868,-0.38448 0.062,-0.14882 0.14882,-0.21084 0.0992,-0.062 0.22325,-0.062 h 1.37666 v -0.93017 q 0,-1.12862 0.22324,-1.97198 0.22324,-0.85576 0.69453,-1.41386 0.48369,-0.57051 1.21543,-0.85577 0.74414,-0.28525 1.74873,-0.28525 0.48369,0 0.91777,0.0868 0.43409,0.0744 0.68213,0.17363 0.24805,0.0868 0.33487,0.17363 0.0868,0.0744 0.13642,0.23565 0.062,0.14883 0.0868,0.39687 0.0248,0.23565 0.0248,0.59531 z"
       id="path9" />
    <path
       style="font-weight:bold;font-size:25.4px;font-family:Calibri;-inkscape-font-specification:'Calibri, Bold';fill:#ffffff;stroke-width:0.529167"
       d="m 122.97833,141.28771 q 0,0.94258 -0.38448,1.30225 -0.38447,0.35967 -1.42627,0.35967 -1.0542,0 -1.42627,-0.34727 -0.35966,-0.34726 -0.35966,-1.25263 0,-0.94258 0.37207,-1.30225 0.38447,-0.37207 1.43867,-0.37207 1.0418,0 1.41387,0.35967 0.37207,0.34726 0.37207,1.25263 z"
       id="path8" />
    <path
       style="font-weight:bold;font-size:25.4px;font-family:Calibri;-inkscape-font-specification:'Calibri, Bold';fill:#ffffff;stroke-width:0.529167"
       d="m 122.74268,156.09611 q 0,0.12403 -0.0744,0.22324 -0.0744,0.0868 -0.26045,0.14883 -0.17363,0.062 -0.47129,0.0868 -0.29766,0.0372 -0.75654,0.0372 -0.45889,0 -0.75655,-0.0372 -0.29765,-0.0248 -0.48369,-0.0868 -0.17363,-0.062 -0.24804,-0.14883 -0.0744,-0.0992 -0.0744,-0.22324 v -11.03808 q 0,-0.12403 0.0744,-0.21084 0.0744,-0.0992 0.24804,-0.16123 0.18604,-0.0744 0.48369,-0.11163 0.29766,-0.0372 0.75655,-0.0372 0.45888,0 0.75654,0.0372 0.29766,0.0372 0.47129,0.11163 0.18603,0.062 0.26045,0.16123 0.0744,0.0868 0.0744,0.21084 z"
       id="path7" />
    <path
       style="font-weight:bold;font-size:25.4px;font-family:Calibri;-inkscape-font-specification:'Calibri, Bold';fill:#ffffff;stroke-width:0.529167"
       d="m 116.5043,156.09611 q 0,0.12403 -0.0744,0.22324 -0.0744,0.0868 -0.26045,0.14883 -0.17363,0.062 -0.47129,0.0868 -0.29766,0.0372 -0.75654,0.0372 -0.45889,0 -0.75655,-0.0372 -0.29765,-0.0248 -0.48369,-0.0868 -0.17363,-0.062 -0.24805,-0.14883 -0.0744,-0.0992 -0.0744,-0.22324 v -16.30908 q 0,-0.12402 0.0744,-0.22324 0.0744,-0.0992 0.24805,-0.16123 0.18604,-0.0744 0.48369,-0.11162 0.29766,-0.0372 0.75655,-0.0372 0.45888,0 0.75654,0.0372 0.29766,0.0372 0.47129,0.11162 0.18603,0.062 0.26045,0.16123 0.0744,0.0992 0.0744,0.22324 z"
       id="path6" />
    <path
       style="font-weight:bold;font-size:25.4px;font-family:Calibri;-inkscape-font-specification:'Calibri, Bold';fill:#ffffff;stroke-width:0.529167"
       d="m 110.88604,150.40344 q 0,1.47588 -0.32246,2.6665 -0.31006,1.17822 -0.91777,2.00918 -0.60772,0.83096 -1.51309,1.27744 -0.90537,0.44649 -2.07119,0.44649 -0.48369,0 -0.89297,-0.0992 -0.39687,-0.0868 -0.78135,-0.27285 -0.37207,-0.19844 -0.74414,-0.4837 -0.37207,-0.28525 -0.76894,-0.66972 v 5.20898 q 0,0.12403 -0.0744,0.22324 -0.0744,0.0992 -0.26044,0.16123 -0.17364,0.0744 -0.47129,0.11163 -0.29766,0.0372 -0.75655,0.0372 -0.45888,0 -0.75654,-0.0372 -0.29766,-0.0372 -0.48369,-0.11163 -0.173634,-0.062 -0.248048,-0.16123 -0.07441,-0.0992 -0.07441,-0.22324 v -15.45332 q 0,-0.12402 0.06201,-0.21084 0.06201,-0.0992 0.210838,-0.16123 0.16123,-0.062 0.40928,-0.0868 0.26045,-0.0372 0.64492,-0.0372 0.37207,0 0.62012,0.0372 0.26045,0.0248 0.40927,0.0868 0.16123,0.062 0.22325,0.16123 0.062,0.0868 0.062,0.21084 v 1.30225 q 0.48369,-0.4961 0.94258,-0.86817 0.47128,-0.38447 0.95498,-0.63252 0.48369,-0.26045 0.99218,-0.38447 0.5209,-0.12402 1.10381,-0.12402 1.21543,0 2.07119,0.48369 0.85576,0.47129 1.38907,1.30225 0.5457,0.83095 0.79375,1.93476 0.24804,1.10381 0.24804,2.35645 z m -3.24941,0.22324 q 0,-0.70694 -0.11162,-1.35186 -0.0992,-0.65732 -0.35967,-1.16582 -0.24805,-0.50849 -0.66973,-0.80615 -0.40927,-0.31006 -1.02939,-0.31006 -0.31006,0 -0.62012,0.0992 -0.29765,0.0868 -0.62012,0.29766 -0.31005,0.21084 -0.64492,0.5457 -0.33486,0.33486 -0.70693,0.83096 v 3.64629 q 0.65732,0.83095 1.25264,1.28984 0.59531,0.44648 1.24023,0.44648 0.60771,0 1.02939,-0.31005 0.43409,-0.31006 0.70694,-0.80616 0.27285,-0.50849 0.39687,-1.14101 0.13643,-0.63252 0.13643,-1.26504 z"
       id="path5" />
    <path
       style="font-weight:bold;font-size:25.4px;font-family:Calibri;-inkscape-font-specification:'Calibri, Bold';fill:#ffffff;stroke-width:0.529167"
       d="m 96.68536,156.09611 q 0,0.12403 -0.07441,0.22324 -0.07441,0.0868 -0.248047,0.14883 -0.173633,0.062 -0.471289,0.0868 -0.297657,0.0372 -0.756543,0.0372 -0.471289,0 -0.768946,-0.0372 -0.297656,-0.0248 -0.483691,-0.0868 -0.173633,-0.062 -0.248047,-0.14883 -0.06201,-0.0992 -0.06201,-0.22324 v -6.56084 q 0,-0.5581 -0.111621,-1.01699 -0.09922,-0.45889 -0.322461,-0.78135 -0.210839,-0.33486 -0.545703,-0.50849 -0.322461,-0.18604 -0.781347,-0.18604 -0.558106,0 -1.128614,0.43408 -0.570507,0.43409 -1.240234,1.26504 v 7.35459 q 0,0.12403 -0.07441,0.22324 -0.07441,0.0868 -0.260449,0.14883 -0.173633,0.062 -0.471289,0.0868 -0.297657,0.0372 -0.744141,0.0372 -0.458887,0 -0.756543,-0.0372 -0.297656,-0.0248 -0.483691,-0.0868 -0.173633,-0.062 -0.248047,-0.14883 -0.07441,-0.0992 -0.07441,-0.22324 v -6.56084 q 0,-0.5581 -0.111621,-1.01699 -0.09922,-0.45889 -0.310059,-0.78135 -0.21084,-0.33486 -0.545703,-0.50849 -0.334863,-0.18604 -0.781348,-0.18604 -0.570507,0 -1.141015,0.43408 -0.570508,0.43409 -1.227832,1.26504 v 7.35459 q 0,0.12403 -0.07441,0.22324 -0.07441,0.0868 -0.26045,0.14883 -0.173632,0.062 -0.471289,0.0868 -0.297656,0.0372 -0.756543,0.0372 -0.458886,0 -0.756543,-0.0372 -0.297656,-0.0248 -0.483691,-0.0868 -0.173633,-0.062 -0.248047,-0.14883 -0.07441,-0.0992 -0.07441,-0.22324 v -11.06289 q 0,-0.12402 0.06201,-0.21084 0.06201,-0.0992 0.223242,-0.16123 0.161231,-0.062 0.409277,-0.0868 0.26045,-0.0372 0.644922,-0.0372 0.396875,0 0.657324,0.0372 0.26045,0.0248 0.396875,0.0868 0.148829,0.062 0.21084,0.16123 0.06201,0.0868 0.06201,0.21084 v 1.27744 q 0.917773,-0.99218 1.823145,-1.48828 0.917773,-0.49609 1.90996,-0.49609 0.682129,0 1.227832,0.14883 0.545704,0.13642 0.967383,0.40927 0.434082,0.26045 0.744141,0.63252 0.310058,0.37207 0.520898,0.83096 0.496094,-0.5333 0.967383,-0.91777 0.483691,-0.38448 0.942578,-0.62012 0.471289,-0.24805 0.930176,-0.35967 0.471289,-0.12402 0.95498,-0.12402 1.103809,0 1.860352,0.37207 0.756543,0.37207 1.21543,1.01699 0.471289,0.63252 0.669726,1.48828 0.198438,0.85576 0.198438,1.81074 z"
       id="path4" />
    <path
       style="font-weight:bold;font-size:25.4px;font-family:Calibri;-inkscape-font-specification:'Calibri, Bold';fill:#ffffff;stroke-width:0.529167"
       d="m 76.519146,150.24221 q 0,0.5705 -0.260449,0.84336 -0.248047,0.27285 -0.694532,0.27285 h -6.734472 q 0,0.70693 0.16123,1.28984 0.173633,0.57051 0.533301,0.97979 0.37207,0.39687 0.942578,0.60771 0.58291,0.21084 1.389063,0.21084 0.818554,0 1.438671,-0.11162 0.620118,-0.12402 1.066602,-0.26045 0.458887,-0.14883 0.756543,-0.26045 0.297656,-0.12402 0.483691,-0.12402 0.111621,0 0.186036,0.0496 0.07441,0.0372 0.124023,0.14882 0.04961,0.11163 0.06201,0.32247 0.0248,0.19843 0.0248,0.50849 0,0.27285 -0.0124,0.47129 -0.0124,0.18604 -0.03721,0.32246 -0.02481,0.13643 -0.07441,0.23565 -0.04961,0.0868 -0.136426,0.17363 -0.07441,0.0868 -0.434082,0.23564 -0.359668,0.14883 -0.917773,0.29766 -0.558106,0.13643 -1.277442,0.23564 -0.719336,0.11163 -1.53789,0.11163 -1.475879,0 -2.59209,-0.37207 -1.103809,-0.37207 -1.847949,-1.12862 -0.744141,-0.75654 -1.116211,-1.90996 -0.359668,-1.15342 -0.359668,-2.70371 0,-1.47588 0.384472,-2.6541 0.384473,-1.19063 1.116211,-2.00918 0.731739,-0.83096 1.773536,-1.26504 1.054199,-0.43408 2.368847,-0.43408 1.389063,0 2.368848,0.40928 0.992187,0.40927 1.624707,1.14101 0.632519,0.71934 0.930176,1.71152 0.297656,0.99219 0.297656,2.15801 z m -3.026172,-0.89297 q 0.03721,-1.31465 -0.533301,-2.05879 -0.558105,-0.75654 -1.736328,-0.75654 -0.595312,0 -1.041797,0.22324 -0.434082,0.22324 -0.731738,0.60771 -0.285254,0.37207 -0.446484,0.89297 -0.148829,0.5085 -0.173633,1.09141 z"
       id="path3" />
    <path
       style="font-weight:bold;font-size:25.4px;font-family:Calibri;-inkscape-font-specification:'Calibri, Bold';fill:#ffffff;stroke-width:0.529167"
       d="m 66.783307,141.80861 q 0,0.35967 -0.03721,0.62012 -0.0248,0.24805 -0.08682,0.40928 -0.06201,0.14882 -0.16123,0.22324 -0.08682,0.0744 -0.198438,0.0744 H 62.28125 v 12.93565 q 0,0.12402 -0.08682,0.22324 -0.07441,0.0992 -0.260449,0.16123 -0.186035,0.062 -0.508496,0.0992 -0.310059,0.0372 -0.781348,0.0372 -0.471289,0 -0.79375,-0.0372 -0.310058,-0.0372 -0.496093,-0.0992 -0.186035,-0.062 -0.272852,-0.16123 -0.07441,-0.0992 -0.07441,-0.22324 v -12.93565 h -4.018359 q -0.124024,0 -0.21084,-0.0744 -0.08682,-0.0744 -0.148828,-0.22324 -0.06201,-0.16123 -0.09922,-0.40928 -0.02481,-0.26045 -0.02481,-0.62012 0,-0.37207 0.02481,-0.63252 0.03721,-0.26045 0.09922,-0.40927 0.06201,-0.16124 0.148828,-0.22325 0.08682,-0.0744 0.21084,-0.0744 H 66.29961 q 0.111621,0 0.198438,0.0744 0.09922,0.062 0.16123,0.22325 0.06201,0.14882 0.08682,0.40927 0.03721,0.26045 0.03721,0.63252 z"
       id="path2" />
    <path
       style="font-weight:bold;font-size:25.4px;font-family:Calibri;-inkscape-font-specification:'Calibri, Bold';fill:#ffffff;stroke-width:0.529167"
       d="m 47.720906,159.46955 q 0,0.32246 -0.03721,0.5209 -0.02481,0.21084 -0.08682,0.33486 -0.06201,0.12402 -0.148828,0.18604 -0.08682,0.062 -0.186035,0.0868 -0.285254,0.0744 -0.545703,0.0992 -0.260449,0.0248 -0.58291,0.0248 -0.979785,0 -1.624707,-0.31006 -0.644922,-0.31006 -1.029395,-0.90537 -0.384472,-0.58291 -0.545703,-1.47588 -0.148828,-0.89297 -0.148828,-2.30684 v -2.1332 q 0,-0.78135 -0.09922,-1.24024 -0.09922,-0.45888 -0.310058,-0.80615 -0.21084,-0.35967 -0.545703,-0.59531 -0.322461,-0.23565 -0.79375,-0.31006 -0.124024,-0.0248 -0.21084,-0.0868 -0.08682,-0.0744 -0.148828,-0.19843 -0.06201,-0.13643 -0.09922,-0.35967 -0.02481,-0.22324 -0.02481,-0.5457 0,-0.33487 0.02481,-0.55811 0.02481,-0.23564 0.07441,-0.37207 0.06201,-0.13643 0.136426,-0.18604 0.08682,-0.062 0.21084,-0.0868 0.868164,-0.12402 1.32705,-0.84336 0.458887,-0.71934 0.458887,-2.1208 v -1.5999 q 0,-1.41387 0.148828,-2.29444 0.161231,-0.89297 0.545703,-1.48828 0.396875,-0.60771 1.041797,-0.90537 0.644922,-0.31006 1.612305,-0.31006 0.322461,0 0.58291,0.0372 0.260449,0.0248 0.533301,0.0868 0.111621,0.0124 0.198437,0.0744 0.08682,0.062 0.148828,0.18603 0.06201,0.12403 0.08682,0.34727 0.03721,0.21084 0.03721,0.5209 0,0.32246 -0.03721,0.5333 -0.03721,0.21084 -0.09922,0.34726 -0.06201,0.13643 -0.16123,0.19844 -0.09922,0.0496 -0.198438,0.0496 l -0.458887,0.0124 q -0.310058,0.0124 -0.520898,0.12403 -0.198438,0.0992 -0.334863,0.37207 -0.124024,0.26045 -0.186036,0.71933 -0.04961,0.44649 -0.04961,1.40147 v 1.53789 q 0,0.95498 -0.136426,1.5999 -0.136425,0.64492 -0.446484,1.16582 -0.297656,0.5209 -0.781348,0.90537 -0.483691,0.37207 -1.190625,0.5333 0.706934,0.16123 1.190625,0.5333 0.483692,0.37207 0.781348,0.90538 0.310059,0.52089 0.446484,1.16582 0.136426,0.64492 0.136426,1.5875 v 2.08359 q 0,0.94258 0.04961,1.38906 0.06201,0.45889 0.173633,0.71934 0.124024,0.27285 0.297657,0.38447 0.186035,0.11162 0.458886,0.12402 h 0.458887 q 0.173633,0.0124 0.297656,0.062 0.124024,0.062 0.186035,0.18603 0.07441,0.13643 0.09922,0.34727 0.02481,0.21084 0.02481,0.5457 z"
       id="path1" />
    <path
       style="font-weight:bold;font-size:25.4px;font-family:Calibri;-inkscape-font-specification:'Calibri, Bold';fill:#ffffff;stroke-width:0.529167"
       d="m 38.989656,159.46955 q 0,0.32246 -0.03721,0.5209 -0.02481,0.21084 -0.08682,0.33486 -0.06201,0.12402 -0.148829,0.18604 -0.08682,0.062 -0.186035,0.0868 -0.285254,0.0744 -0.545703,0.0992 -0.260449,0.0248 -0.58291,0.0248 -0.979785,0 -1.624707,-0.31006 -0.644922,-0.31006 -1.029395,-0.90537 -0.384472,-0.58291 -0.545703,-1.47588 -0.148828,-0.89297 -0.148828,-2.30684 v -2.1332 q 0,-0.78135 -0.09922,-1.24024 -0.09922,-0.45888 -0.310058,-0.80615 -0.21084,-0.35967 -0.545703,-0.59531 -0.322461,-0.23565 -0.79375,-0.31006 -0.124024,-0.0248 -0.21084,-0.0868 -0.08682,-0.0744 -0.148828,-0.19843 -0.06201,-0.13643 -0.09922,-0.35967 -0.02481,-0.22324 -0.02481,-0.5457 0,-0.33487 0.02481,-0.55811 0.02481,-0.23564 0.07441,-0.37207 0.06201,-0.13643 0.136426,-0.18604 0.08682,-0.062 0.21084,-0.0868 0.868164,-0.12402 1.32705,-0.84336 0.458887,-0.71934 0.458887,-2.1208 v -1.5999 q 0,-1.41387 0.148828,-2.29444 0.161231,-0.89297 0.545703,-1.48828 0.396875,-0.60771 1.041797,-0.90537 0.644922,-0.31006 1.612305,-0.31006 0.322461,0 0.58291,0.0372 0.260449,0.0248 0.533301,0.0868 0.111621,0.0124 0.198437,0.0744 0.08682,0.062 0.148829,0.18603 0.06201,0.12403 0.08682,0.34727 0.03721,0.21084 0.03721,0.5209 0,0.32246 -0.03721,0.5333 -0.03721,0.21084 -0.09922,0.34726 -0.06201,0.13643 -0.16123,0.19844 -0.09922,0.0496 -0.198438,0.0496 l -0.458887,0.0124 q -0.310058,0.0124 -0.520898,0.12403 -0.198437,0.0992 -0.334863,0.37207 -0.124024,0.26045 -0.186035,0.71933 -0.04961,0.44649 -0.04961,1.40147 v 1.53789 q 0,0.95498 -0.136426,1.5999 -0.136425,0.64492 -0.446484,1.16582 -0.297656,0.5209 -0.781348,0.90537 -0.483691,0.37207 -1.190625,0.5333 0.706934,0.16123 1.190625,0.5333 0.483692,0.37207 0.781348,0.90538 0.310059,0.52089 0.446484,1.16582 0.136426,0.64492 0.136426,1.5875 v 2.08359 q 0,0.94258 0.04961,1.38906 0.06201,0.45889 0.173632,0.71934 0.124024,0.27285 0.297657,0.38447 0.186035,0.11162 0.458886,0.12402 h 0.458887 q 0.173633,0.0124 0.297656,0.062 0.124024,0.062 0.186036,0.18603 0.07441,0.13643 0.09922,0.34727 0.0248,0.21084 0.0248,0.5457 z"
       id="text1-2" />
  </g>
</svg>
